<svg xmlns="http://www.w3.org/2000/svg" viewBox="0 0 80.1337 84.5">
  <defs>
    <style>
      .a {
        fill: #fff;
      }
    </style>
  </defs>
  <g>
    <path class="a" d="M129.7578,115.0964h80.1338v84.5H129.7578ZM171.6869,125.75a9.2923,9.2923,0,0,0-1.2423,1.0095q-12.2964,14.3994-24.5822,28.8079a1.849,1.849,0,0,0-.0255,2.7954q12.3309,14.788,24.6162,29.6141c.8909,1.0719,1.5829,1.0654,2.4991-.0319q12.382-14.8308,24.7607-29.6643A1.7686,1.7686,0,0,0,197.7,155.59c-1.7713-1.974-3.4681-4.015-5.1951-6.0288q-9.778-11.4012-19.5646-22.7951A9.542,9.542,0,0,0,171.6869,125.75Z" transform="translate(-129.7578 -115.0964)"/>
    <path d="M171.6869,125.75a9.542,9.542,0,0,1,1.2529,1.0155q9.7955,11.3862,19.5646,22.7951c1.727,2.0138,3.4238,4.0548,5.1951,6.0288a1.7686,1.7686,0,0,1,.0134,2.6913q-12.3973,14.8179-24.7607,29.6643c-.9162,1.0973-1.6082,1.1038-2.4991.0319Q158.1453,173.17,145.8369,158.363a1.849,1.849,0,0,1,.0255-2.7954q12.3154-14.3832,24.5822-28.8079A9.2923,9.2923,0,0,1,171.6869,125.75Zm2.51,6.3952-.2192.16c1.2176,6.42,2.4581,12.836,3.6287,19.2646.1813.9952.7583,1.1661,1.5553,1.2874,3.1678.4822,6.33.9988,9.498,1.4813,1.598.2434,3.2029.4411,4.8047.6594l.0823-.2973Zm-24.1227,26.8552-.1194.2885,19.1,22.9953c-1.0613-6.6838-2.3694-13.2145-3.7506-19.73-.0781-.3685-.7188-.7834-1.1625-.8808-2.2938-.5032-4.6077-.9153-6.9165-1.3489C154.843,159.8773,152.4582,159.4415,150.0744,159.0006Zm18.5157-25.743-.2237-.1264-17.9513,21.07c4.3179-.936,8.4541-2.1064,12.5692-3.3467.3274-.0986.6169-.6477.7407-1.0446.7249-2.3223,1.4-4.66,2.0827-6.9955Q167.205,138.038,168.59,133.2576Zm6.1511,48.15.2208.137,18.0666-21.6756a2.8745,2.8745,0,0,0-.61.0047c-4.0531,1.3467-8.1108,2.68-12.1441,4.0839a1.8244,1.8244,0,0,0-.8891,1.0892c-.5485,1.7063-1.0048,3.4424-1.4916,5.1685Q176.316,175.811,174.7412,181.4076Zm-3.1818-48.06-.31-.0281-5.1,17.4555,9.0173,1.4177C173.931,145.7361,172.7452,139.5418,171.5594,133.3475Zm.2009,47.9543.34.0045c1.6055-5.6744,3.2109-11.3487,4.86-17.1757l-9.0168-1.719C169.2532,168.8957,170.5068,175.0988,171.76,181.3018Zm-5.6449-27.92c.4364,2.1166.7888,3.9949,1.2433,5.8481.068.2773.59.5563.9447.631,1.8758.395,3.7652.7253,5.65,1.0772.9411.1758,1.8826.35,3.0027.5577-.4239-2.205-.78-4.1663-1.2011-6.1137a1.0092,1.0092,0,0,0-.68-.6079C172.1859,154.2963,169.2888,153.8666,166.1154,153.3814Zm24.9049,4.2364-.0424-.3549-12.6534-1.9665,1.2737,6.1614Zm-38.4833-1.0665.0536.3215,12.1215,2.2958-1.227-5.7229Z" transform="translate(-129.7578 -115.0964)"/>
    <path class="a" d="M174.1971,132.1454l19.35,22.5552-.0823.2973c-1.6018-.2183-3.2067-.416-4.8047-.6594-3.1677-.4825-6.33-.9991-9.498-1.4813-.797-.1213-1.374-.2922-1.5553-1.2874-1.1706-6.4286-2.4111-12.8445-3.6287-19.2646Z" transform="translate(-129.7578 -115.0964)"/>
    <path class="a" d="M150.0744,159.0006c2.3838.4409,4.7686.8767,7.1512,1.3243,2.3088.4336,4.6227.8457,6.9165,1.3489.4437.0974,1.0844.5123,1.1625.8808,1.3812,6.5153,2.6893,13.046,3.7506,19.73l-19.1-22.9953Z" transform="translate(-129.7578 -115.0964)"/>
    <path class="a" d="M168.59,133.2576q-1.3906,4.7787-2.7824,9.5571c-.6831,2.3352-1.3578,4.6732-2.0827,6.9955-.1238.3969-.4133.946-.7407,1.0446-4.1151,1.24-8.2513,2.4107-12.5692,3.3467l17.9513-21.07Z" transform="translate(-129.7578 -115.0964)"/>
    <path class="a" d="M174.7412,181.4076q1.5764-5.5962,3.1531-11.1923c.4868-1.7261.9431-3.4622,1.4916-5.1685a1.8244,1.8244,0,0,1,.8891-1.0892c4.0333-1.4036,8.091-2.7372,12.1441-4.0839a2.8745,2.8745,0,0,1,.61-.0047L174.962,181.5446Z" transform="translate(-129.7578 -115.0964)"/>
    <path class="a" d="M171.5594,133.3475c1.1858,6.1943,2.3716,12.3886,3.6075,18.8451l-9.0173-1.4177,5.1-17.4555Z" transform="translate(-129.7578 -115.0964)"/>
    <path class="a" d="M171.76,181.3018c-1.2535-6.203-2.5071-12.4061-3.8174-18.89l9.0168,1.719c-1.6487,5.827-3.2541,11.5013-4.86,17.1757Z" transform="translate(-129.7578 -115.0964)"/>
    <path class="a" d="M166.1154,153.3814c3.1734.4852,6.0705.9149,8.96,1.3924a1.0092,1.0092,0,0,1,.68.6079c.4207,1.9474.7772,3.9087,1.2011,6.1137-1.12-.2079-2.0616-.3819-3.0027-.5577-1.8849-.3519-3.7743-.6822-5.65-1.0772-.3547-.0747-.8767-.3537-.9447-.631C166.9042,157.3763,166.5518,155.498,166.1154,153.3814Z" transform="translate(-129.7578 -115.0964)"/>
    <path class="a" d="M191.02,157.6178l-11.4221,3.84-1.2737-6.1614,12.6534,1.9665Z" transform="translate(-129.7578 -115.0964)"/>
    <path class="a" d="M152.537,156.5513l10.9481-3.1056,1.227,5.7229-12.1215-2.2958Z" transform="translate(-129.7578 -115.0964)"/>
  </g>
</svg>
