<svg id="Layer_1" data-name="Layer 1" xmlns="http://www.w3.org/2000/svg" viewBox="0 0 277.0723 42.1475"><path d="M702.002,802.4922q-4.7249,2.6455-13.1358,2.6465a20.8932,20.8932,0,0,1-14.8047-6.0489,19.8383,19.8383,0,0,1-6.3945-15.0253,21.3287,21.3287,0,0,1,5.5757-15.0254,18.6894,18.6894,0,0,1,14.3955-6.0479,44.9,44.9,0,0,1,13.9228,2.2051l-.7558,2.3935a45.8116,45.8116,0,0,0-13.5454-2.0156,15.1362,15.1362,0,0,0-11.75,5.3242,18.8683,18.8683,0,0,0-4.7564,13.0411,18.6674,18.6674,0,0,0,18.27,18.5527,31.1717,31.1717,0,0,0,12.0332-2.0156Z" transform="translate(-667.667 -762.9912)" style="fill:#fff"/><path d="M729.7852,805.1387a19.6178,19.6178,0,0,1-14.68-6.1114,21.8631,21.8631,0,0,1,0-29.9248,20.6852,20.6852,0,0,1,29.3584,0,21.8634,21.8634,0,0,1,0,29.9248A19.62,19.62,0,0,1,729.7852,805.1387Zm.0312-39.5645a16.523,16.523,0,0,0-12.6006,5.3555,19.688,19.688,0,0,0,0,26.2392,17.5368,17.5368,0,0,0,25.169,0,19.7819,19.7819,0,0,0,0-26.2392A16.4234,16.4234,0,0,0,729.8164,765.5742Z" transform="translate(-667.667 -762.9912)" style="fill:#fff"/><path d="M762.9854,804.5078V763.3691h1.3857l26.8389,30.87q1.4472,1.639,2.6767,3.2451t1.292,1.6689q-.1274-1.5117-.126-5.9219v-29.61H797.95V804.76h-1.3857l-27.3418-31.3731-3.4649-4.2207q.1245,1.26.126,5.9219v29.42Z" transform="translate(-667.667 -762.9912)" style="fill:#fff"/><path d="M820.3789,766.2041h-13.86v-2.583h30.5546v2.583H823.2139v38.3037h-2.835Z" transform="translate(-667.667 -762.9912)" style="fill:#fff"/><path d="M843.752,790.334l-5.8594,14.1738h-2.961l17.1358-41.1387h1.7012L871.03,804.5078h-3.2129l-5.9219-14.1738Zm9.0087-22.3028q-.9447,2.8361-1.7011,4.7247l-6.3,15.1211h16.1279L854.65,772.8193Q853.2,769.2921,852.7607,768.0312Z" transform="translate(-667.667 -762.9912)" style="fill:#fff"/><path d="M910.4053,802.4922q-4.7256,2.6455-13.1358,2.6465a20.8917,20.8917,0,0,1-14.8047-6.0489,19.8369,19.8369,0,0,1-6.3945-15.0253,21.3306,21.3306,0,0,1,5.5752-15.0254,18.69,18.69,0,0,1,14.3955-6.0479,44.8988,44.8988,0,0,1,13.9229,2.2051l-.7559,2.3935a45.8059,45.8059,0,0,0-13.5449-2.0156,15.1366,15.1366,0,0,0-11.75,5.3242,18.87,18.87,0,0,0-4.7559,13.0411,18.6674,18.6674,0,0,0,18.27,18.5527,31.17,31.17,0,0,0,12.0332-2.0156Z" transform="translate(-667.667 -762.9912)" style="fill:#fff"/><path d="M928.0449,766.2041h-13.86v-2.583h30.5547v2.583H930.88v38.3037h-2.835Z" transform="translate(-667.667 -762.9912)" style="fill:#fff"/></svg>