<svg id="Layer_1" data-name="Layer 1" xmlns="http://www.w3.org/2000/svg" viewBox="0 0 241.2236 42.1465"><path d="M694.8193,652.62a15.1351,15.1351,0,0,0-11.75,5.3233,18.9107,18.9107,0,0,0-4.7563,13.0722,17.926,17.926,0,0,0,5.355,13.1358A17.2277,17.2277,0,0,0,696.3,689.5381q7.2767,0,11.3086-1.7012V671.0156h2.8979V689.16q-4.9137,3.0234-13.9228,3.0234a20.7438,20.7438,0,0,1-15.1831-6.11,20.3123,20.3123,0,0,1-6.1738-15.0253,21.2452,21.2452,0,0,1,5.5756-14.9629,18.6862,18.6862,0,0,1,14.3956-6.0479,44.9,44.9,0,0,1,13.9228,2.2051l-.7559,2.3935A45.8111,45.8111,0,0,0,694.8193,652.62Z" transform="translate(-675.2266 -650.0371)" style="fill:#fff"/><path d="M726.2559,677.3789l-5.8594,14.1748h-2.961l17.1368-41.1387h1.7l17.2627,41.1387h-3.2129L744.4,677.3789Zm9.0087-22.3018q-.9447,2.8346-1.7011,4.7247l-6.3,15.12h16.1279l-6.2363-15.0567Q735.7051,656.338,735.2646,655.0771Z" transform="translate(-675.2266 -650.0371)" style="fill:#fff"/><path d="M761.85,691.5537V650.667h2.8984v38.2412h18.7735v2.6455Z" transform="translate(-675.2266 -650.0371)" style="fill:#fff"/><path d="M792.09,691.5537V650.667h2.8975v38.2412h18.7744v2.6455Z" transform="translate(-675.2266 -650.0371)" style="fill:#fff"/><path d="M822.3291,691.5537V650.667H841.418v2.5195H825.2275v14.8682h14.6163v2.457H825.2275v18.3965h16.82v2.6455Z" transform="translate(-675.2266 -650.0371)" style="fill:#fff"/><path d="M853.64,691.5537V650.8555q5.4186-.44,9.1983-.4405a14.96,14.96,0,0,1,9.5762,2.9922,10.2557,10.2557,0,0,1,3.7793,8.5371,11.9606,11.9606,0,0,1-2.1416,6.8662,20.2158,20.2158,0,0,1-4.8506,5.1036q7.4955,9.9551,9.2607,11.9072a12.961,12.961,0,0,0,7.8115,4.2207l-.0625,1.9531a14.97,14.97,0,0,1-5.7334-1.04,13.7323,13.7323,0,0,1-4.3779-3.3067q-2.1738-2.3306-9.5449-12.5371-5.1021,0-10.0166-.3154v16.7578Zm11.34-18.8369q2.458,0,5.292-3.2754a11.29,11.29,0,0,0,2.8349-7.623,7.8236,7.8236,0,0,0-2.9609-6.6153,12.2941,12.2941,0,0,0-7.6855-2.2685q-2.5211,0-5.9219.2519v19.2158Q861.0732,672.7173,864.98,672.7168Z" transform="translate(-675.2266 -650.0371)" style="fill:#fff"/><path d="M901.0156,691.5537h-2.8349V676.9375l-15.4356-26.27h3.4658l11.9063,20.2861a29.3931,29.3931,0,0,0,1.5752,2.961q.3778-.8188,1.5752-2.8985l11.9072-20.3486H916.45l-15.4346,26.3965Z" transform="translate(-675.2266 -650.0371)" style="fill:#fff"/></svg>