<svg id="eTO1zwRcA2G1" xmlns="http://www.w3.org/2000/svg" xmlns:xlink="http://www.w3.org/1999/xlink" viewBox="0 0 551.6421 222.5361" shape-rendering="geometricPrecision" text-rendering="geometricPrecision">
<style><![CDATA[
#eTO1zwRcA2G2_to {animation: eTO1zwRcA2G2_to__to 3000ms linear infinite normal forwards}@keyframes eTO1zwRcA2G2_to__to { 0% {transform: translate(-693.217px,-723.305px)} 50% {transform: translate(-693.217px,-721.305px)} 100% {transform: translate(-693.217px,-723.305px)}} #eTO1zwRcA2G3_to {animation: eTO1zwRcA2G3_to__to 3000ms linear infinite normal forwards}@keyframes eTO1zwRcA2G3_to__to { 0% {transform: translate(-693.217px,-723.305px)} 50% {transform: translate(-693.217px,-725.305px)} 100% {transform: translate(-693.217px,-723.305px)}}
]]></style>
<g id="eTO1zwRcA2G2_to" transform="translate(-693.217,-723.305)"><path d="M786.5664,723.3047q12.643,0,32.7315,4.0176q2.9531.5918,9.4531,1.7724q1.1807.2388,1.1816,1.1817v36.6308c.046436.325424-.063019.653724-.29545.886175s-.560722.341933-.88615.295525h-9.4531c-.7881,0-1.1817-.3135-1.1817-.9453l-4.8447-27.1778q0-.7089-1.0635-1.1816-20.7978-4.6085-27.2959-4.6084-31.7871,0-50.042,18.4922-18.2563,18.495-18.2568,50.2793q0,32.1415,17.6064,54.8281q19.1426,24.58,50.4561,24.5781q8.8623,0,24.2236-3.19v-48.92c.04613-.325359-.063425-.653471-.295779-.885846s-.560458-.341957-.885821-.295854l-20.6787-1.8906q-1.1821,0-1.1817-1.5361v-5.79c-.055776-.390524.07557-.784517.354524-1.063451s.672956-.410253,1.063476-.354449h61.8c.39052-.055804.784522.075515,1.063476.354449s.4103.672927.354524,1.063451v5.79q0,1.5381-1.1817,1.5361l-18.1972,1.8906c-.512183-.073753-1.005737.222371-1.1817.709v56.3643q0,.7089-1.1816,1.3c-15.488548,3.694554-31.343245,5.636743-47.2656,5.79q-38.0494,0-62.8633-23.16-25.4062-23.631-25.4048-61.3272q0-25.4048,12.6435-45.3154t35.6851-30.5459c14.128375-6.437973,29.494813-9.705078,45.0203-9.5719Z" transform="translate(0,0)" fill="#e7e7e7"/></g><g id="eTO1zwRcA2G3_to" transform="translate(-693.217,-723.305)"><path d="M842.5664,775.9209q12.6415,0,32.7315,4.0176q2.9515.5932,9.4531,1.7724c.7861.1592,1.1816.5528,1.1816,1.1817v36.6308c.046436.325424-.063019.653724-.29545.886175s-.560722.341933-.88615.295525h-9.4531c-.7891,0-1.1817-.3135-1.1817-.9453l-4.8447-27.1778c0-.4726-.3545-.8652-1.0635-1.1816q-20.7993-4.6085-27.2959-4.6084-31.7886,0-50.043,18.4932-18.2563,18.4936-18.2558,50.2783q0,32.1431,17.6064,54.8281q19.1426,24.58,50.4561,24.5781q8.8623,0,24.2236-3.19v-48.92c.045956-.325322-.063656-.653327-.295967-.885658s-.560307-.341971-.885633-.296042l-20.6787-1.8906q-1.1836,0-1.1817-1.5361v-5.79c-.055776-.390524.07557-.784517.354524-1.063451s.672956-.410253,1.063476-.354449h61.8c.39052-.055804.784522.075515,1.063476.354449s.4103.672927.354524,1.063451v5.79c0,1.0254-.3955,1.5361-1.1817,1.5361l-18.1972,1.8906c-.51228-.074236-1.006117.222058-1.1817.709v56.364c0,.4726-.3955.9072-1.1816,1.3-15.48847,3.694987-31.343217,5.637182-47.2656,5.79q-38.0508,0-62.8633-23.16-25.4078-23.6309-25.4053-61.3272q0-25.4033,12.6436-45.3154q12.6415-19.91,35.6855-30.5459c14.128332-6.438071,29.494814-9.705082,45.0203-9.5716Z" transform="translate(0,0)" fill="#e7e7e7"/></g><path d="M920.6641,786.0283c-3.509347,4.009361-5.376585,9.195282-5.2286,14.5215-.10847,5.467536,2.032383,10.739865,5.9219,14.584c3.766609,3.915617,8.994531,6.084544,14.4268,5.9853c4.145744.126435,8.276234-.558606,12.1592-2.0166v-18.5214h3.0234v19.9082q-5.48,3.4013-15.34,3.4013c-6.250019.132077-12.27814-2.317791-16.6641-6.7724-4.464959-4.341976-6.928665-10.341604-6.8037-16.5684-.164264-6.095228,2.050329-12.015073,6.1748-16.5059c4.036504-4.440662,9.814203-6.892416,15.8125-6.71c5.203899.027101,10.370704.877794,15.3086,2.5205l-.8184,2.5195c-4.693643-1.458143-9.575288-2.222091-14.49-2.2676-5.155701-.152317-10.106515,2.022275-13.4824,5.922Z" transform="translate(-693.217-723.305)" fill="#e7e7e7"/><path d="M970.2129,817.15c-8.356823-9.453413-8.356823-23.653087,0-33.1065c4.162026-4.289161,9.883783-6.709766,15.86035-6.709766s11.698324,2.420605,15.86035,6.709766c8.401054,9.436621,8.401054,23.669879,0,33.1065-4.152289,4.307063-9.877684,6.74019-15.86035,6.74019s-11.708061-2.433127-15.86035-6.74019Zm2.2363-31.1543c-6.983428,8.485531-6.969924,20.731091.0322,29.2012c3.517654,3.776816,8.446726,5.921817,13.60795,5.921817s10.090296-2.145001,13.60795-5.921817c7.014257-8.470092,7.014257-20.731108,0-29.2012-3.534567-3.758393-8.46472-5.88971-13.62405-5.88971s-10.089483,2.131317-13.62405,5.88971Z" transform="translate(-693.217-723.305)" fill="#e7e7e7"/><path d="M1035.1973,777.6494c6.415654-.192733,12.65364,2.123651,17.3886,6.457q6.9932,6.4585,6.9922,17.5459c.064253,3.393497-.54584,6.765985-1.7949,9.9219-1.050371,2.674282-2.749896,5.045053-4.9453,6.8985q-6.4893,5.231-16.1914,5.2294-6.3633,0-14.4268-.6933v-44.9188q6.4263-.44,12.9776-.4406Zm1.4492,43.28q8.8829,0,14.2695-4.8193t5.3867-14.5215q0-9.7-6.08-15.4346c-4.0533-3.82276-9.455842-5.884265-15.0254-5.7334q-5.7334,0-9.9532.3154v39.6895c3.787906.387708,7.595054.556156,11.4024.5045Z" transform="translate(-693.217-723.305)" fill="#e7e7e7"/><path d="M1086.542,777.6494c6.415386-.192741,12.653094,2.12366,17.3877,6.457q6.9932,6.4585,6.9932,17.5459c.063892,3.39356-.546539,6.766043-1.7959,9.9219-1.050061,2.674477-2.749677,5.045326-4.9454,6.8985q-6.4891,5.231-16.19,5.2294-6.3648,0-14.4267-.6933v-44.9188q6.4244-.44,12.9771-.4406Zm1.4492,43.28q8.8828,0,14.27-4.8193t5.3858-14.5215q0-9.7-6.0791-15.4346c-4.053377-3.822637-9.455866-5.884122-15.0254-5.7334q-5.7334,0-9.9541.3154v39.6895c3.788043.387655,7.595322.556103,11.4028.5045Z" transform="translate(-693.217-723.305)" fill="#e7e7e7"/><path d="M1126.6719,807.5107l-6.4883,15.6241h-3.2129l18.9629-45.3594h1.7637l19.0263,45.3594h-3.4023l-6.4893-15.6241Zm9.9551-24.6953c-.114707.240668-.199344.494545-.252.7559q-.8847,2.7085-1.7012,4.5986l-6.9306,16.7578h18.0185l-6.93-16.6943c-.908196-1.73054-1.646547-3.54502-2.2047-5.418Z" transform="translate(-693.217-723.305)" fill="#e7e7e7"/><path d="M1166.0469,823.1348v-44.8555q5.9853-.4409,10.0176-.4414c3.804159-.153439,7.544057,1.015326,10.5839,3.3076q4.1573,3.3077,4.1582,9.3555c.001109,2.726224-.834706,5.387079-2.3945,7.623-1.429701,2.178953-3.244513,4.079127-5.3555,5.6074q2.3307,3.2124,5.7647,7.6543t4.4424,5.5752c2.235627,2.557955,5.325611,4.215072,8.6933,4.6621l-.0625,2.0157c-2.137157.041461-4.260177-.355046-6.2383-1.1651-1.720793-.826192-3.270075-1.969935-4.5664-3.3711q-2.1738-2.2676-10.8046-14.1113-6.1758,0-11.2149-.3779v18.5215Zm12.4111-20.6641q2.7715,0,5.9219-3.6533c2.06286-2.337097,3.185098-5.356527,3.1494-8.4736.177901-2.819948-1.033405-5.548888-3.2441-7.3086-2.509429-1.764306-5.536182-2.640058-8.6-2.4883q-2.8344,0-6.6152.2519v21.3574q5.0409.315,9.388.3145Z" transform="translate(-693.217-723.305)" fill="#e7e7e7"/><path d="M1220.4785,777.6494c6.415058-.192564,12.65239,2.123831,17.3867,6.457q6.9932,6.4585,6.9942,17.5459c.063268,3.393418-.54679,6.765714-1.7949,9.9219-1.051092,2.674413-2.751293,5.045169-4.9473,6.8985q-6.4893,5.231-16.1895,5.2294-6.3646,0-14.4277-.6933v-44.9188q6.4263-.44,12.9785-.4406Zm1.4492,43.28q8.8829,0,14.27-4.8193q5.3847-4.8193,5.3867-14.5215q0-9.7-6.08-15.4346c-4.053572-3.822326-9.455928-5.88376-15.0254-5.7334q-5.7334,0-9.9551.3154v39.6895c3.788378.38765,7.59599.556098,11.4038.5045Z" transform="translate(-693.217-723.305)" fill="#e7e7e7"/><path d="M923.0635,847.1387c-3.509151,4.009392-5.376333,9.195185-5.2285,14.5213-.108059,5.467705,2.032671,10.740144,5.9218,14.5849c3.766946,3.915019,8.994726,6.083562,14.4268,5.9844c4.145673.126687,8.276148-.558012,12.1592-2.0156v-18.5223h3.0244v19.9086q-5.4815,3.4029-15.3408,3.4024c-6.24974.132048-12.277553-2.317878-16.6631-6.7725-4.465466-4.342081-6.929546-10.342064-6.8047-16.5693-.164264-6.095228,2.050329-12.015073,6.1748-16.5059c4.036879-4.440022,9.814422-6.891345,15.8125-6.709c5.20385.026717,10.370664.877075,15.3086,2.5195l-.8184,2.52c-4.693609-1.45829-9.575275-2.222242-14.49-2.2676-5.155632-.152645-10.106524,2.021619-13.4826,5.9211Z" transform="translate(-693.217-723.305)" fill="#e7e7e7"/><path d="M968.99,884.2461v-44.8561q5.9855-.4393,10.0176-.44c3.804202-.153537,7.544165,1.015237,10.584,3.3076q4.1572,3.3062,4.1582,9.3555c.001105,2.725945-.834718,5.386511-2.3945,7.6221-1.429119,2.179092-3.243633,4.079308-5.3545,5.6074q2.3291,3.2124,5.7636,7.6543t4.4424,5.5762c2.235778,2.557649,5.325799,4.214411,8.6934,4.6611l-.0625,2.0166c-2.136899.041223-4.259604-.355595-6.2373-1.166-1.720997-.825861-3.270602-1.969218-4.5674-3.37q-2.1738-2.2677-10.8047-14.1123-6.1743,0-11.2139-.378v18.5225Zm12.4112-20.6641q2.7714,0,5.9218-3.6543c2.063078-2.337008,3.185533-5.356448,3.15-8.4736.177688-2.819626-1.033609-5.548171-3.2441-7.3076-2.509282-1.764614-5.536142-2.640398-8.6-2.4883q-2.8359,0-6.6153.252v21.3564q5.0401.3164,9.3878.3154Z" transform="translate(-693.217-723.305)" fill="#e7e7e7"/><path d="M1014.0664,878.2607c-8.358103-9.45289-8.358103-23.65351,0-33.1064c4.162262-4.288724,9.883931-6.709025,15.86035-6.709025s11.698088,2.420301,15.86035,6.709025c8.399729,9.437087,8.399729,23.669313,0,33.1064-4.151935,4.307711-9.877463,6.741292-15.86035,6.741292s-11.708415-2.433581-15.86035-6.741292Zm2.2363-31.1533c-6.984333,8.484633-6.971206,20.73036.0313,29.2c3.517606,3.776866,8.446673,5.921904,13.6079,5.921904s10.090294-2.145038,13.6079-5.921904c7.014271-8.469635,7.014271-20.730365,0-29.2-3.534077-3.758905-8.464183-5.890604-13.62355-5.890604s-10.089473,2.131699-13.62355,5.890604Z" transform="translate(-693.217-723.305)" fill="#e7e7e7"/><path d="M1096.4385,879.8672q-4.3463,5.1357-13.2295,5.1348t-13.2617-5.1661q-4.38-5.165-4.3789-14.1123v-26.5224h3.0244v26.5224q0,16.6318,14.584,16.6319t14.5849-16.6319v-26.5224h3.0235v26.5224q0,9.0104-4.3467,14.1436Z" transform="translate(-693.217-723.305)" fill="#e7e7e7"/><path d="M1116.9131,884.2461v-44.793q5.228-.5038,10.1426-.5039q6.6152,0,10.6162,3.0869q3.999,3.0865,4,9.292c.019636,4.10296-2.028901,7.939776-5.4492,10.2061-3.784863,2.715632-8.353225,4.120552-13.01,4.001h-.6934v-2.0791h.4414c3.868593.088559,7.66458-1.059205,10.836-3.2764c2.896169-1.867665,4.632177-5.090111,4.5986-8.5361q0-5.26-3.2129-7.6231t-8.6308-2.3623q-2.8345,0-6.6153.252v42.3359Z" transform="translate(-693.217-723.305)" fill="#e7e7e7"/></svg>
