<svg id="Layer_1" data-name="Layer 1" xmlns="http://www.w3.org/2000/svg" viewBox="0 0 16 16"><path d="M8,0C5.829,0,5.556.01,4.703.048A5.8947,5.8947,0,0,0,2.76.42a3.9165,3.9165,0,0,0-1.417.923A3.9269,3.9269,0,0,0,.42,2.76,5.86,5.86,0,0,0,.048,4.7C.01,5.555,0,5.827,0,8.001c0,2.172.01,2.444.048,3.297A5.8935,5.8935,0,0,0,.42,13.24a4.0956,4.0956,0,0,0,2.339,2.34,5.8732,5.8732,0,0,0,1.942.372C5.555,15.99,5.827,16,8,16s2.444-.01,3.298-.048a5.9057,5.9057,0,0,0,1.943-.372,4.0956,4.0956,0,0,0,2.339-2.34,5.92,5.92,0,0,0,.372-1.942C15.99,10.445,16,10.173,16,8s-.01-2.445-.048-3.299A5.9128,5.9128,0,0,0,15.58,2.76a3.9269,3.9269,0,0,0-.923-1.417A3.9109,3.9109,0,0,0,13.24.42,5.8853,5.8853,0,0,0,11.297.048C10.443.01,10.172,0,7.998,0H8ZM7.283,1.442h.718c2.136,0,2.389.007,3.232.046a4.4333,4.4333,0,0,1,1.486.275,2.4821,2.4821,0,0,1,.92.599,2.4717,2.4717,0,0,1,.598.92,4.3941,4.3941,0,0,1,.275,1.485c.039.843.047,1.096.047,3.231s-.008,2.389-.047,3.232a4.4258,4.4258,0,0,1-.275,1.485,2.6515,2.6515,0,0,1-1.519,1.517,4.4011,4.4011,0,0,1-1.485.276c-.843.038-1.096.047-3.232.047s-2.39-.009-3.233-.047a4.4188,4.4188,0,0,1-1.485-.276,2.4778,2.4778,0,0,1-.92-.598,2.48,2.48,0,0,1-.6-.92,4.42,4.42,0,0,1-.275-1.485c-.038-.843-.046-1.096-.046-3.233s.008-2.388.046-3.231a4.4263,4.4263,0,0,1,.276-1.486,2.4821,2.4821,0,0,1,.599-.92,2.4717,2.4717,0,0,1,.92-.598,4.4188,4.4188,0,0,1,1.485-.276c.738-.034,1.024-.044,2.515-.045ZM12.271,2.77a.96.96,0,0,0,0,1.92h0a.96.96,0,0,0,0-1.92ZM8.001,3.892a4.109,4.109,0,0,0-.1282,8.217q.064.0011.1282,0a4.109,4.109,0,0,0,0-8.217Zm0,1.441a2.667,2.667,0,0,1,.0023,5.334H8.001a2.667,2.667,0,0,1,0-5.334Z" style="fill:#fff"/></svg>