<svg id="Layer_1" data-name="Layer 1" xmlns="http://www.w3.org/2000/svg" viewBox="0 0 16 16"><path d="M0,1.146A1.1607,1.1607,0,0,1,1.175,0h13.65A1.1607,1.1607,0,0,1,16,1.146V14.854A1.1607,1.1607,0,0,1,14.825,16H1.175A1.1607,1.1607,0,0,1,0,14.854ZM4.943,13.394V6.169H2.542v7.225Zm-1.2-8.212a1.2519,1.2519,0,1,0,.016-2.496,1.2515,1.2515,0,1,0-.032,2.496Zm4.908,8.212V9.359a1.63,1.63,0,0,1,.08-.586,1.3135,1.3135,0,0,1,1.232-.878c.869,0,1.216.662,1.216,1.634v3.865H13.58V9.25c0-2.22-1.184-3.252-2.764-3.252A2.3857,2.3857,0,0,0,8.651,7.191v.025H8.635l.016-.025V6.169h-2.4c.03.678,0,7.225,0,7.225Z" style="fill:#fff"/></svg>