<svg id="Layer_1" data-name="Layer 1" xmlns="http://www.w3.org/2000/svg" viewBox="0 0 244.9419 42.3994"><path d="M670.187,566.7109V525.8232h2.898v38.2413h18.7739v2.6464Z" transform="translate(-670.187 -525.0674)" style="fill:#fff"/><path d="M700.4268,566.7109V525.8232h2.8979v40.8877Z" transform="translate(-670.187 -525.0674)" style="fill:#fff"/><path d="M726.6973,527.5879a8.8758,8.8758,0,0,0-5.544,1.6377,5.4571,5.4571,0,0,0-2.1416,4.5986,8.2666,8.2666,0,0,0,2.835,6.1113,39.6365,39.6365,0,0,0,5.1972,4.127q3.18,2.1723,4.379,3.1182,1.1952.9447,2.8974,2.583a9.7837,9.7837,0,0,1,3.0869,7.1191q0,5.2295-3.4961,7.9063-3.4965,2.6792-9.7646,2.6777a16.5894,16.5894,0,0,1-10.49-3.2764l1.5127-2.205a15.9127,15.9127,0,0,0,9.0713,2.8984q4.7871,0,7.4659-2.0156a6.6891,6.6891,0,0,0,2.6777-5.6709,7.9915,7.9915,0,0,0-2.709-5.7959,37.3891,37.3891,0,0,0-5.0723-4.0948q-3.1816-2.2046-4.4414-3.1816a37.7953,37.7953,0,0,1-2.9609-2.6143,10.2067,10.2067,0,0,1-3.2129-7.4336,8.0033,8.0033,0,0,1,2.9932-6.6152q2.9911-2.3936,8.2841-2.3945a21.2446,21.2446,0,0,1,9.5127,2.0791l-1.0712,2.331A20.4482,20.4482,0,0,0,726.6973,527.5879Z" transform="translate(-670.187 -525.0674)" style="fill:#fff"/><path d="M756.3066,528.4062h-13.86v-2.583H773.002v2.583h-13.86v38.3047h-2.835Z" transform="translate(-670.187 -525.0674)" style="fill:#fff"/><path d="M781.5693,566.7109V525.8232h2.8985v40.8877Z" transform="translate(-670.187 -525.0674)" style="fill:#fff"/><path d="M799.5869,566.7109v-41.14h1.3858l26.8388,30.87q1.4473,1.6392,2.6768,3.2451t1.292,1.669q-.1275-1.5117-.126-5.9219v-29.61h2.8975v41.14H833.166l-27.3418-31.374-3.4648-4.2207q.1245,1.26.126,5.9218v29.4209Z" transform="translate(-670.187 -525.0674)" style="fill:#fff"/><path d="M866.7451,527.7764a15.1366,15.1366,0,0,0-11.75,5.3242,18.911,18.911,0,0,0-4.7558,13.0723,17.9267,17.9267,0,0,0,5.3545,13.1357,17.2278,17.2278,0,0,0,12.6318,5.3857q7.2759,0,11.3086-1.7V546.1729h2.8974v18.1435q-4.9131,3.0249-13.9228,3.0244a20.7431,20.7431,0,0,1-15.1826-6.1113,20.3107,20.3107,0,0,1-6.1739-15.0254,21.2484,21.2484,0,0,1,5.5752-14.9629,18.69,18.69,0,0,1,14.3955-6.0478,44.8982,44.8982,0,0,1,13.9229,2.205l-.7559,2.3946A45.8029,45.8029,0,0,0,866.7451,527.7764Z" transform="translate(-670.187 -525.0674)" style="fill:#fff"/><path d="M904.4189,527.5879a8.8718,8.8718,0,0,0-5.5439,1.6377,5.4553,5.4553,0,0,0-2.1426,4.5986,8.27,8.27,0,0,0,2.835,6.1113,39.5858,39.5858,0,0,0,5.1982,4.127q3.18,2.1723,4.378,3.1182t2.8984,2.583a9.7876,9.7876,0,0,1,3.0869,7.1191q0,5.2295-3.4971,7.9063-3.4965,2.6792-9.7646,2.6777a16.5864,16.5864,0,0,1-10.4893-3.2764l1.5117-2.205a15.9155,15.9155,0,0,0,9.0723,2.8984q4.7871,0,7.4649-2.0156a6.6865,6.6865,0,0,0,2.6777-5.6709,7.9878,7.9878,0,0,0-2.709-5.7959,37.3788,37.3788,0,0,0-5.0713-4.0948q-3.1817-2.2046-4.4414-3.1816a37.4346,37.4346,0,0,1-2.9609-2.6143,10.2028,10.2028,0,0,1-3.2129-7.4336,8.0054,8.0054,0,0,1,2.9922-6.6152q2.9912-2.3936,8.2842-2.3945a21.2488,21.2488,0,0,1,9.5136,2.0791l-1.0713,2.331A20.451,20.451,0,0,0,904.4189,527.5879Z" transform="translate(-670.187 -525.0674)" style="fill:#fff"/></svg>