<svg id="eqRDyGnLS6a1" xmlns="http://www.w3.org/2000/svg" xmlns:xlink="http://www.w3.org/1999/xlink" viewBox="0 0 271.9231 173.5" shape-rendering="geometricPrecision" text-rendering="geometricPrecision">
<style><![CDATA[
#eqRDyGnLS6a3_to {animation: eqRDyGnLS6a3_to__to 1100ms linear infinite normal forwards}@keyframes eqRDyGnLS6a3_to__to { 0% {transform: translate(153.622659px,127.900475px)} 9.090909% {transform: translate(153.622659px,129.900475px)} 18.181818% {transform: translate(153.622659px,131.900475px)} 27.272727% {transform: translate(153.622659px,139.900475px)} 100% {transform: translate(153.622659px,139.900475px)}} #eqRDyGnLS6a3 {animation-name: eqRDyGnLS6a3_c_o, eqRDyGnLS6a3_f_p;animation-duration: 1100ms;animation-fill-mode: forwards;animation-timing-function: linear;animation-direction: normal;animation-iteration-count: infinite;}@keyframes eqRDyGnLS6a3_c_o { 0% {opacity: 1} 27.272727% {opacity: 0} 100% {opacity: 0}}@keyframes eqRDyGnLS6a3_f_p { 0% {fill: #fff} 18.181818% {fill: #fff} 27.272727% {fill: #40f} 100% {fill: #40f}} #eqRDyGnLS6a4_to {animation: eqRDyGnLS6a4_to__to 1100ms linear infinite normal forwards}@keyframes eqRDyGnLS6a4_to__to { 0% {transform: translate(167.939212px,121.503317px)} 9.090909% {transform: translate(167.939212px,123.503317px)} 18.181818% {transform: translate(167.939212px,125.503317px)} 27.272727% {transform: translate(167.939212px,133.503317px)} 100% {transform: translate(167.939212px,133.503317px)}} #eqRDyGnLS6a4 {animation-name: eqRDyGnLS6a4_c_o, eqRDyGnLS6a4_f_p;animation-duration: 1100ms;animation-fill-mode: forwards;animation-timing-function: linear;animation-direction: normal;animation-iteration-count: infinite;}@keyframes eqRDyGnLS6a4_c_o { 0% {opacity: 1} 27.272727% {opacity: 0} 100% {opacity: 0}}@keyframes eqRDyGnLS6a4_f_p { 0% {fill: #fff} 18.181818% {fill: #fff} 27.272727% {fill: #40f} 100% {fill: #40f}} #eqRDyGnLS6a5_to {animation: eqRDyGnLS6a5_to__to 1100ms linear infinite normal forwards}@keyframes eqRDyGnLS6a5_to__to { 0% {transform: translate(181.028627px,115.106159px)} 9.090909% {transform: translate(181.028627px,117.106159px)} 18.181818% {transform: translate(181.028627px,119.106159px)} 27.272727% {transform: translate(181.028627px,127.106159px)} 100% {transform: translate(181.028627px,127.106159px)}} #eqRDyGnLS6a5 {animation-name: eqRDyGnLS6a5_c_o, eqRDyGnLS6a5_f_p;animation-duration: 1100ms;animation-fill-mode: forwards;animation-timing-function: linear;animation-direction: normal;animation-iteration-count: infinite;}@keyframes eqRDyGnLS6a5_c_o { 0% {opacity: 1} 27.272727% {opacity: 0} 100% {opacity: 0}}@keyframes eqRDyGnLS6a5_f_p { 0% {fill: #fff} 18.181818% {fill: #fff} 27.272727% {fill: #40f} 100% {fill: #40f}} #eqRDyGnLS6a6_to {animation: eqRDyGnLS6a6_to__to 1100ms linear infinite normal forwards}@keyframes eqRDyGnLS6a6_to__to { 0% {transform: translate(221.340606px,75.089746px)} 9.090909% {transform: translate(221.340606px,77.089746px)} 18.181818% {transform: translate(221.340606px,79.089746px)} 27.272727% {transform: translate(221.340606px,87.089746px)} 100% {transform: translate(221.340606px,87.089746px)}} #eqRDyGnLS6a6 {animation-name: eqRDyGnLS6a6_c_o, eqRDyGnLS6a6_f_p;animation-duration: 1100ms;animation-fill-mode: forwards;animation-timing-function: linear;animation-direction: normal;animation-iteration-count: infinite;}@keyframes eqRDyGnLS6a6_c_o { 0% {opacity: 1} 27.272727% {opacity: 0} 100% {opacity: 0}}@keyframes eqRDyGnLS6a6_f_p { 0% {fill: #fff} 18.181818% {fill: #fff} 27.272727% {fill: #40f} 100% {fill: #40f}} #eqRDyGnLS6a7_to {animation: eqRDyGnLS6a7_to__to 1100ms linear infinite normal forwards}@keyframes eqRDyGnLS6a7_to__to { 0% {transform: translate(196.572309px,105.106159px)} 9.090909% {transform: translate(196.572309px,107.106159px)} 18.181818% {transform: translate(196.572309px,109.106159px)} 27.272727% {transform: translate(196.572309px,117.106159px)} 100% {transform: translate(196.572309px,117.106159px)}} #eqRDyGnLS6a7 {animation-name: eqRDyGnLS6a7_c_o, eqRDyGnLS6a7_f_p;animation-duration: 1100ms;animation-fill-mode: forwards;animation-timing-function: linear;animation-direction: normal;animation-iteration-count: infinite;}@keyframes eqRDyGnLS6a7_c_o { 0% {opacity: 1} 27.272727% {opacity: 0} 100% {opacity: 0}}@keyframes eqRDyGnLS6a7_f_p { 0% {fill: #fff} 18.181818% {fill: #fff} 27.272727% {fill: #40f} 100% {fill: #40f}} #eqRDyGnLS6a8_to {animation: eqRDyGnLS6a8_to__to 1100ms linear infinite normal forwards}@keyframes eqRDyGnLS6a8_to__to { 0% {transform: translate(207.752853px,95.867521px)} 9.090909% {transform: translate(207.752853px,97.867521px)} 18.181818% {transform: translate(207.752853px,99.867521px)} 27.272727% {transform: translate(207.752853px,107.867521px)} 100% {transform: translate(207.752853px,107.867521px)}} #eqRDyGnLS6a8 {animation-name: eqRDyGnLS6a8_c_o, eqRDyGnLS6a8_f_p;animation-duration: 1100ms;animation-fill-mode: forwards;animation-timing-function: linear;animation-direction: normal;animation-iteration-count: infinite;}@keyframes eqRDyGnLS6a8_c_o { 0% {opacity: 1} 27.272727% {opacity: 0} 100% {opacity: 0}}@keyframes eqRDyGnLS6a8_f_p { 0% {fill: #fff} 18.181818% {fill: #fff} 27.272727% {fill: #40f} 100% {fill: #40f}} #eqRDyGnLS6a9_to {animation: eqRDyGnLS6a9_to__to 1100ms linear infinite normal forwards}@keyframes eqRDyGnLS6a9_to__to { 0% {transform: translate(211.903467px,91.8429px)} 9.090909% {transform: translate(211.903467px,93.8429px)} 18.181818% {transform: translate(211.903467px,95.8429px)} 27.272727% {transform: translate(211.903467px,103.8429px)} 100% {transform: translate(211.903467px,103.8429px)}} #eqRDyGnLS6a9 {animation-name: eqRDyGnLS6a9_c_o, eqRDyGnLS6a9_f_p;animation-duration: 1100ms;animation-fill-mode: forwards;animation-timing-function: linear;animation-direction: normal;animation-iteration-count: infinite;}@keyframes eqRDyGnLS6a9_c_o { 0% {opacity: 1} 27.272727% {opacity: 0} 100% {opacity: 0}}@keyframes eqRDyGnLS6a9_f_p { 0% {fill: #fff} 18.181818% {fill: #fff} 27.272727% {fill: #40f} 100% {fill: #40f}} #eqRDyGnLS6a10_to {animation: eqRDyGnLS6a10_to__to 1100ms linear infinite normal forwards}@keyframes eqRDyGnLS6a10_to__to { 0% {transform: translate(130.579827px,134.550227px)} 9.090909% {transform: translate(130.579827px,136.550227px)} 18.181818% {transform: translate(130.579827px,138.550227px)} 27.272727% {transform: translate(130.579827px,146.550227px)} 100% {transform: translate(130.579827px,146.550227px)}} #eqRDyGnLS6a10 {animation-name: eqRDyGnLS6a10_c_o, eqRDyGnLS6a10_f_p;animation-duration: 1100ms;animation-fill-mode: forwards;animation-timing-function: linear;animation-direction: normal;animation-iteration-count: infinite;}@keyframes eqRDyGnLS6a10_c_o { 0% {opacity: 1} 27.272727% {opacity: 0} 100% {opacity: 0}}@keyframes eqRDyGnLS6a10_f_p { 0% {fill: #fff} 18.181818% {fill: #fff} 27.272727% {fill: #40f} 100% {fill: #40f}} #eqRDyGnLS6a11_to {animation: eqRDyGnLS6a11_to__to 1100ms linear infinite normal forwards}@keyframes eqRDyGnLS6a11_to__to { 0% {transform: translate(140.112544px,132.297633px)} 9.090909% {transform: translate(140.112544px,134.297633px)} 18.181818% {transform: translate(140.112544px,136.297633px)} 27.272727% {transform: translate(140.112544px,144.297633px)} 100% {transform: translate(140.112544px,144.297633px)}} #eqRDyGnLS6a11 {animation-name: eqRDyGnLS6a11_c_o, eqRDyGnLS6a11_f_p;animation-duration: 1100ms;animation-fill-mode: forwards;animation-timing-function: linear;animation-direction: normal;animation-iteration-count: infinite;}@keyframes eqRDyGnLS6a11_c_o { 0% {opacity: 1} 27.272727% {opacity: 0} 100% {opacity: 0}}@keyframes eqRDyGnLS6a11_f_p { 0% {fill: #fff} 18.181818% {fill: #fff} 27.272727% {fill: #40f} 100% {fill: #40f}} #eqRDyGnLS6a12_to {animation: eqRDyGnLS6a12_to__to 1100ms linear infinite normal forwards}@keyframes eqRDyGnLS6a12_to__to { 0% {transform: translate(122.263434px,136.218361px)} 9.090909% {transform: translate(122.263434px,138.218361px)} 18.181818% {transform: translate(122.263434px,140.218361px)} 27.272727% {transform: translate(122.263434px,148.218361px)} 100% {transform: translate(122.263434px,148.218361px)}} #eqRDyGnLS6a12 {animation-name: eqRDyGnLS6a12_c_o, eqRDyGnLS6a12_f_p;animation-duration: 1100ms;animation-fill-mode: forwards;animation-timing-function: linear;animation-direction: normal;animation-iteration-count: infinite;}@keyframes eqRDyGnLS6a12_c_o { 0% {opacity: 1} 27.272727% {opacity: 0} 100% {opacity: 0}}@keyframes eqRDyGnLS6a12_f_p { 0% {fill: #fff} 18.181818% {fill: #fff} 27.272727% {fill: #40f} 100% {fill: #40f}} #eqRDyGnLS6a13_to {animation: eqRDyGnLS6a13_to__to 1100ms linear infinite normal forwards}@keyframes eqRDyGnLS6a13_to__to { 0% {transform: translate(109.788844px,138.449589px)} 9.090909% {transform: translate(109.788844px,140.449589px)} 18.181818% {transform: translate(109.788844px,142.449589px)} 27.272727% {transform: translate(109.788844px,150.449589px)} 100% {transform: translate(109.788844px,150.449589px)}} #eqRDyGnLS6a13 {animation-name: eqRDyGnLS6a13_c_o, eqRDyGnLS6a13_f_p;animation-duration: 1100ms;animation-fill-mode: forwards;animation-timing-function: linear;animation-direction: normal;animation-iteration-count: infinite;}@keyframes eqRDyGnLS6a13_c_o { 0% {opacity: 1} 27.272727% {opacity: 0} 100% {opacity: 0}}@keyframes eqRDyGnLS6a13_f_p { 0% {fill: #fff} 18.181818% {fill: #fff} 27.272727% {fill: #40f} 100% {fill: #40f}} #eqRDyGnLS6a14_to {animation: eqRDyGnLS6a14_to__to 1100ms linear infinite normal forwards}@keyframes eqRDyGnLS6a14_to__to { 0% {transform: translate(97.618511px,139.173719px)} 9.090909% {transform: translate(97.618511px,141.173719px)} 18.181818% {transform: translate(97.618511px,143.173719px)} 27.272727% {transform: translate(97.618511px,151.173719px)} 100% {transform: translate(97.618511px,151.173719px)}} #eqRDyGnLS6a14 {animation-name: eqRDyGnLS6a14_c_o, eqRDyGnLS6a14_f_p;animation-duration: 1100ms;animation-fill-mode: forwards;animation-timing-function: linear;animation-direction: normal;animation-iteration-count: infinite;}@keyframes eqRDyGnLS6a14_c_o { 0% {opacity: 1} 27.272727% {opacity: 0} 100% {opacity: 0}}@keyframes eqRDyGnLS6a14_f_p { 0% {fill: #fff} 18.181818% {fill: #fff} 27.272727% {fill: #40f} 100% {fill: #40f}} #eqRDyGnLS6a15_to {animation: eqRDyGnLS6a15_to__to 1100ms linear infinite normal forwards}@keyframes eqRDyGnLS6a15_to__to { 0% {transform: translate(89.953762px,139.496212px)} 9.090909% {transform: translate(89.953762px,141.496212px)} 18.181818% {transform: translate(89.953762px,143.496212px)} 27.272727% {transform: translate(89.953762px,151.496212px)} 100% {transform: translate(89.953762px,151.496212px)}} #eqRDyGnLS6a15 {animation-name: eqRDyGnLS6a15_c_o, eqRDyGnLS6a15_f_p;animation-duration: 1100ms;animation-fill-mode: forwards;animation-timing-function: linear;animation-direction: normal;animation-iteration-count: infinite;}@keyframes eqRDyGnLS6a15_c_o { 0% {opacity: 1} 27.272727% {opacity: 0} 100% {opacity: 0}}@keyframes eqRDyGnLS6a15_f_p { 0% {fill: #fff} 18.181818% {fill: #fff} 27.272727% {fill: #40f} 100% {fill: #40f}} #eqRDyGnLS6a16_tr {animation: eqRDyGnLS6a16_tr__tr 1100ms linear infinite normal forwards}@keyframes eqRDyGnLS6a16_tr__tr { 0% {transform: translate(135.961824px,86.750008px) rotate(0deg)} 27.272727% {transform: translate(135.961824px,86.750008px) rotate(-4.868494deg)} 100% {transform: translate(135.961824px,86.750008px) rotate(0deg)}} #eqRDyGnLS6a17 {animation: eqRDyGnLS6a17_f_p 1100ms linear infinite normal forwards}@keyframes eqRDyGnLS6a17_f_p { 0% {fill: #fff} 27.272727% {fill: #9145f8} 63.636364% {fill: #fff} 100% {fill: #fff}} #eqRDyGnLS6a18_to {animation: eqRDyGnLS6a18_to__to 1100ms linear infinite normal forwards}@keyframes eqRDyGnLS6a18_to__to { 0% {transform: translate(-29.737703px,-75.5857px)} 9.090909% {transform: translate(-2.49047px,-87.522583px)} 18.181818% {transform: translate(26.05425px,-106.3423px)} 27.272727% {transform: translate(45.776056px,-131.29256px)} 36.363636% {transform: translate(48.111533px,-153.868839px)} 45.454545% {transform: translate(35.693644px,-166.805722px)} 54.545455% {transform: translate(-143.306356px,-101.805722px)} 63.636364% {transform: translate(-144.306356px,-91.805722px)} 72.727273% {transform: translate(-139.116407px,-76.495372px)} 81.818182% {transform: translate(-120.173093px,-65.855976px)} 90.909091% {transform: translate(-79.580446px,-64.558489px)} 100% {transform: translate(-43.152146px,-73.6409px)}} #eqRDyGnLS6a18 {animation-name: eqRDyGnLS6a18_c_o, eqRDyGnLS6a18_f_p;animation-duration: 1100ms;animation-fill-mode: forwards;animation-timing-function: linear;animation-direction: normal;animation-iteration-count: infinite;}@keyframes eqRDyGnLS6a18_c_o { 0% {opacity: 1} 36.363636% {opacity: 0.88} 45.454545% {opacity: 0} 54.545455% {opacity: 0} 63.636364% {opacity: 1} 100% {opacity: 1}}@keyframes eqRDyGnLS6a18_f_p { 0% {fill: #fff} 27.272727% {fill: #9145f8} 63.636364% {fill: #fff} 100% {fill: #fff}} #eqRDyGnLS6a19_ts {animation: eqRDyGnLS6a19_ts__ts 1100ms linear infinite normal forwards}@keyframes eqRDyGnLS6a19_ts__ts { 0% {transform: translate(-29.9972px,-75.5857px) scale(1,1)} 27.272727% {transform: translate(-29.9972px,-75.5857px) scale(1.079573,0.965378)} 63.636364% {transform: translate(-29.9972px,-75.5857px) scale(1,1)} 100% {transform: translate(-29.9972px,-75.5857px) scale(1,1)}} #eqRDyGnLS6a19 {animation: eqRDyGnLS6a19_f_p 1100ms linear infinite normal forwards}@keyframes eqRDyGnLS6a19_f_p { 0% {fill: #fff} 27.272727% {fill: #9145f8} 63.636364% {fill: #fff} 100% {fill: #fff}} #eqRDyGnLS6a21 {animation: eqRDyGnLS6a21_f_p 1100ms linear infinite normal forwards}@keyframes eqRDyGnLS6a21_f_p { 0% {fill: #fff} 27.272727% {fill: #9145f8} 63.636364% {fill: #fff} 100% {fill: #fff}} #eqRDyGnLS6a22_to {animation: eqRDyGnLS6a22_to__to 1100ms linear infinite normal forwards}@keyframes eqRDyGnLS6a22_to__to { 0% {transform: translate(-29.737703px,-75.5857px)} 9.090909% {transform: translate(-2.49047px,-87.522583px)} 18.181818% {transform: translate(26.05425px,-106.3423px)} 27.272727% {transform: translate(45.776056px,-131.29256px)} 36.363636% {transform: translate(48.111533px,-153.868839px)} 45.454545% {transform: translate(35.693644px,-166.805722px)} 54.545455% {transform: translate(-143.306356px,-101.805722px)} 63.636364% {transform: translate(-144.306356px,-91.805722px)} 72.727273% {transform: translate(-139.116407px,-76.495372px)} 81.818182% {transform: translate(-120.173093px,-65.855976px)} 90.909091% {transform: translate(-79.580446px,-64.558489px)} 100% {transform: translate(-43.152146px,-73.6409px)}} #eqRDyGnLS6a22 {animation-name: eqRDyGnLS6a22_c_o, eqRDyGnLS6a22_f_p;animation-duration: 1100ms;animation-fill-mode: forwards;animation-timing-function: linear;animation-direction: normal;animation-iteration-count: infinite;}@keyframes eqRDyGnLS6a22_c_o { 0% {opacity: 1} 36.363636% {opacity: 0.88} 45.454545% {opacity: 0} 54.545455% {opacity: 0} 63.636364% {opacity: 1} 100% {opacity: 1}}@keyframes eqRDyGnLS6a22_f_p { 0% {fill: #fff} 27.272727% {fill: #9145f8} 63.636364% {fill: #fff} 100% {fill: #fff}} #eqRDyGnLS6a23_ts {animation: eqRDyGnLS6a23_ts__ts 1100ms linear infinite normal forwards}@keyframes eqRDyGnLS6a23_ts__ts { 0% {transform: translate(-29.9972px,-75.5857px) scale(1,1)} 27.272727% {transform: translate(-29.9972px,-75.5857px) scale(1.079573,0.965378)} 63.636364% {transform: translate(-29.9972px,-75.5857px) scale(1,1)} 100% {transform: translate(-29.9972px,-75.5857px) scale(1,1)}} #eqRDyGnLS6a23 {animation: eqRDyGnLS6a23_f_p 1100ms linear infinite normal forwards}@keyframes eqRDyGnLS6a23_f_p { 0% {fill: #fff} 27.272727% {fill: #9145f8} 63.636364% {fill: #fff} 100% {fill: #fff}}
]]></style>
<g transform="translate(0 0.000001)"><g id="eqRDyGnLS6a3_to" transform="translate(153.622659,127.900475)"><ellipse id="eqRDyGnLS6a3" rx="2.075307" ry="2.198579" transform="translate(0,0)" fill="#fff" stroke-width="0"/></g><g id="eqRDyGnLS6a4_to" transform="translate(167.939212,121.503317)"><ellipse id="eqRDyGnLS6a4" rx="2.075307" ry="2.198579" transform="translate(0,0)" fill="#fff" stroke-width="0"/></g><g id="eqRDyGnLS6a5_to" transform="translate(181.028627,115.106159)"><ellipse id="eqRDyGnLS6a5" rx="2.075307" ry="2.198579" transform="translate(0,0)" fill="#fff" stroke-width="0"/></g><g id="eqRDyGnLS6a6_to" transform="translate(221.340606,75.089746)"><ellipse id="eqRDyGnLS6a6" rx="2.075307" ry="2.198579" transform="translate(0,0)" fill="#fff" stroke-width="0"/></g><g id="eqRDyGnLS6a7_to" transform="translate(196.572309,105.106159)"><ellipse id="eqRDyGnLS6a7" rx="2.075307" ry="2.198579" transform="translate(0,0)" fill="#fff" stroke-width="0"/></g><g id="eqRDyGnLS6a8_to" transform="translate(207.752853,95.867521)"><ellipse id="eqRDyGnLS6a8" rx="2.075307" ry="2.198579" transform="translate(0,0)" fill="#fff" stroke-width="0"/></g><g id="eqRDyGnLS6a9_to" transform="translate(211.903467,91.8429)"><ellipse id="eqRDyGnLS6a9" rx="2.075307" ry="2.198579" transform="translate(0,0)" fill="#fff" stroke-width="0"/></g><g id="eqRDyGnLS6a10_to" transform="translate(130.579827,134.550227)"><ellipse id="eqRDyGnLS6a10" rx="2.075307" ry="2.198579" transform="translate(0,0)" fill="#fff" stroke-width="0"/></g><g id="eqRDyGnLS6a11_to" transform="translate(140.112544,132.297633)"><ellipse id="eqRDyGnLS6a11" rx="2.075307" ry="2.198579" transform="translate(0,0)" fill="#fff" stroke-width="0"/></g><g id="eqRDyGnLS6a12_to" transform="translate(122.263434,136.218361)"><ellipse id="eqRDyGnLS6a12" rx="2.075307" ry="2.198579" transform="translate(0,0)" fill="#fff" stroke-width="0"/></g><g id="eqRDyGnLS6a13_to" transform="translate(109.788844,138.449589)"><ellipse id="eqRDyGnLS6a13" rx="2.075307" ry="2.198579" transform="translate(0,0)" fill="#fff" stroke-width="0"/></g><g id="eqRDyGnLS6a14_to" transform="translate(97.618511,139.173719)"><ellipse id="eqRDyGnLS6a14" rx="2.075307" ry="2.198579" transform="translate(0,0)" fill="#fff" stroke-width="0"/></g><g id="eqRDyGnLS6a15_to" transform="translate(89.953762,139.496212)"><ellipse id="eqRDyGnLS6a15" rx="2.075307" ry="2.198579" transform="translate(0,0)" fill="#fff" stroke-width="0"/></g></g><g id="eqRDyGnLS6a16_tr" transform="translate(135.961824,86.750008) rotate(0)"><g transform="scale(0.643673,0.643675) translate(-135.961824,-86.750008)"><path id="eqRDyGnLS6a17" d="M97.8568,249.0857c-15.2251-.8467-30.1005-2.3041-44.18-8.18-11.1884-4.6689-20.34-11.5786-23.0319-24.32-2.01-9.5139.886-18.1713,5.5786-26.2674c8.5426-14.7383,21.2365-25.464,34.6424-35.5221c1.886908-1.477205,3.216538-3.551135,3.7713-5.8824c7.2195-37.4246,35.198-65.5251,72.5626-71.8532c28.8584-4.8875,54.4266,2.3306,76.218,22.2743c1.844852,1.52719,4.157996,2.374887,6.5528,2.4014c15.91-.0882,31.6828.7464,46.7,6.5878c12.1528,4.7273,22.06,11.9076,24.7335,25.7779c1.623,8.42-.7586,16.2074-4.6415,23.5437-7.2549,13.7074-18.2209,24.1622-30.4362,33.3039-37.5491,28.1011-80.1762,44.4067-125.92,52.9133-14.0226,2.6071-28.3579,3.5291-42.5496,5.2228Zm134.47-140.1427c2.2754,3.814,3.7559,6.7725,5.6743,9.413c4.0669,5.5976,3.9713,11.5826.3556,16.8161-4.772,6.9072-9.6784,14.171-16.0448,19.4518-33.219,27.5543-71.9091,39.5332-114.8351,38.1122-9.0265-.2989-17.8537-2.1116-25.6821-7.1449-3.9467-2.5376-6.9159-5.5752-7.1294-10.6987-.1625-3.8992-.8208-7.7778-1.3529-12.5048-11.6955,8.473-21.7818,17.4837-29.21,29.1212C31.47,211.2975,36.858,226.9669,58.9161,235.12c11.8916,4.3955,24.3143,5.6287,36.8322,5.724c27.0452.2058,53.3116-4.8151,79.0292-12.8123c33.6383-10.46,65.3842-24.7478,92.7553-47.4593c10.0631-8.35,19.1222-17.6574,24.3886-29.9283c5.7529-13.4041,2.01-24.6408-10.6445-31.9012-14.8525-8.5211-31.2769-9.351-48.9502-9.7999Zm-117.925,76.7375c23.7066-.3675,44.1572-4.4924,63.695-12.7272c18.5754-7.8292,35.791-17.844,49.0652-33.4151c7.9149-9.2845,7.8542-12.9275,1.08-22.92C205.2844,82.7519,158.036,72.69,121.6088,93.91c-28.8423,16.8014-44.7863,48.4779-39.9168,78.8384.356123,3.151618,2.291635,5.905362,5.1364,7.3078c9.4078,5.2903,19.7653,5.3175,27.5733,5.6243Z" transform="translate(-29.9972-75.5857)" fill="#fff"/><g id="eqRDyGnLS6a18_to" transform="translate(-29.737703,-75.5857)"><path id="eqRDyGnLS6a18" d="M177.7511,218.043c-7.488.055-12.781-4.4331-12.8805-10.9219-.1156-7.5348,7.2179-14.0407,15.8135-14.0288c7.2706.01,12.6762,4.8295,12.674,11.3-.0024,7.3369-7.1499,13.5886-15.607,13.6507Zm-1.973-7.2256c5.5425.1137,10.17-3.0644,10.2021-6.0388.04-3.635-2.7754-4.1889-5.4561-4.3106-3.9088-.1775-8.9483,3.4969-8.23,6.238.495,1.8908,2.7653,3.3166,3.484,4.1114Z" transform="translate(0,0)" fill="#fff"/></g><g id="eqRDyGnLS6a19_ts" transform="translate(-29.9972,-75.5857) scale(1,1)"><path id="eqRDyGnLS6a19" d="M90.9893,164.4885c3.4285-29.479,14.614-52.5438,40.2474-66.7356c1.306-.723,2.6613-1.7551,4.0413-1.8366c1.4378-.0849,3.8934.4866,4.1825,1.3484.4527,1.35-.4374,3.2214-.9867,4.7923-.1669.477-1.0722.717-1.6619,1.0218-23.5647,12.1806-34.6692,32.5048-37.9037,57.976-.1257.99.0528,2.211-.4644,2.9205-1.211924,1.481919-2.523714,2.879275-3.9262,4.1823Z" transform="translate(0,0)" fill="#fff"/></g><g><path id="eqRDyGnLS6a21" d="M97.8568,249.0857c-15.2251-.8467-30.1005-2.3041-44.18-8.18-11.1884-4.6689-20.34-11.5786-23.0319-24.32-2.01-9.5139.886-18.1713,5.5786-26.2674c8.5426-14.7383,21.2365-25.464,34.6424-35.5221c1.886908-1.477205,3.216538-3.551135,3.7713-5.8824c7.2195-37.4246,35.198-65.5251,72.5626-71.8532c28.8584-4.8875,54.4266,2.3306,76.218,22.2743c1.844852,1.52719,4.157996,2.374887,6.5528,2.4014c15.91-.0882,31.6828.7464,46.7,6.5878c12.1528,4.7273,22.06,11.9076,24.7335,25.7779c1.623,8.42-.7586,16.2074-4.6415,23.5437-7.2549,13.7074-18.2209,24.1622-30.4362,33.3039-37.5491,28.1011-80.1762,44.4067-125.92,52.9133-14.0226,2.6071-28.3579,3.5291-42.5496,5.2228Zm134.47-140.1427c2.2754,3.814,3.7559,6.7725,5.6743,9.413c4.0669,5.5976,3.9713,11.5826.3556,16.8161-4.772,6.9072-9.6784,14.171-16.0448,19.4518-33.219,27.5543-71.9091,39.5332-114.8351,38.1122-9.0265-.2989-17.8537-2.1116-25.6821-7.1449-3.9467-2.5376-6.9159-5.5752-7.1294-10.6987-.1625-3.8992-.8208-7.7778-1.3529-12.5048-11.6955,8.473-21.7818,17.4837-29.21,29.1212C31.47,211.2975,36.858,226.9669,58.9161,235.12c11.8916,4.3955,24.3143,5.6287,36.8322,5.724c27.0452.2058,53.3116-4.8151,79.0292-12.8123c33.6383-10.46,65.3842-24.7478,92.7553-47.4593c10.0631-8.35,19.1222-17.6574,24.3886-29.9283c5.7529-13.4041,2.01-24.6408-10.6445-31.9012-14.8525-8.5211-31.2769-9.351-48.9502-9.7999Zm-117.925,76.7375c23.7066-.3675,44.1572-4.4924,63.695-12.7272c18.5754-7.8292,35.791-17.844,49.0652-33.4151c7.9149-9.2845,7.8542-12.9275,1.08-22.92C205.2844,82.7519,158.036,72.69,121.6088,93.91c-28.8423,16.8014-44.7863,48.4779-39.9168,78.8384.356123,3.151618,2.291635,5.905362,5.1364,7.3078c9.4078,5.2903,19.7653,5.3175,27.5733,5.6243Z" transform="translate(-29.9972-75.5857)" fill="#fff"/><g id="eqRDyGnLS6a22_to" transform="translate(-29.737703,-75.5857)"><path id="eqRDyGnLS6a22" d="M177.7511,218.043c-7.488.055-12.781-4.4331-12.8805-10.9219-.1156-7.5348,7.2179-14.0407,15.8135-14.0288c7.2706.01,12.6762,4.8295,12.674,11.3-.0024,7.3369-7.1499,13.5886-15.607,13.6507Zm-1.973-7.2256c5.5425.1137,10.17-3.0644,10.2021-6.0388.04-3.635-2.7754-4.1889-5.4561-4.3106-3.9088-.1775-8.9483,3.4969-8.23,6.238.495,1.8908,2.7653,3.3166,3.484,4.1114Z" transform="translate(0,0)" fill="#fff"/></g><g id="eqRDyGnLS6a23_ts" transform="translate(-29.9972,-75.5857) scale(1,1)"><path id="eqRDyGnLS6a23" d="M90.9893,164.4885c3.4285-29.479,14.614-52.5438,40.2474-66.7356c1.306-.723,2.6613-1.7551,4.0413-1.8366c1.4378-.0849,3.8934.4866,4.1825,1.3484.4527,1.35-.4374,3.2214-.9867,4.7923-.1669.477-1.0722.717-1.6619,1.0218-23.5647,12.1806-34.6692,32.5048-37.9037,57.976-.1257.99.0528,2.211-.4644,2.9205-1.211924,1.481919-2.523714,2.879275-3.9262,4.1823Z" transform="translate(0,0)" fill="#fff"/></g></g></g></g></svg>
