<svg xmlns="http://www.w3.org/2000/svg" viewBox="0 0 813 849">
  <defs>
    <style>
      .a {
        fill: #010101;
      }

      .b {
        fill: #1a1a1a;
      }
    </style>
  </defs>
  <g>
    <path class="a" d="M326-255h11c2.2656.5352,4.5283,1.083,6.7973,1.6035,19.4614,4.4643,35.235,15.4812,49.6584,28.5681,24.3227,22.0686,42.3174,48.9572,57.3093,77.88a331.6144,331.6144,0,0,1,26.122,65.7236c3.7453,13.8105,6.4664,27.8979,10.1776,41.7186,2.4259,9.0343,2.0726,18.38,9.5978,26.5578,17.0242,18.5006,29.7287,40.1963,40.3514,63.07,9.2239,19.8623,17.2876,40.1385,21.8157,61.5819A42.5058,42.5058,0,0,0,573.04,136.29,338.7135,338.7135,0,0,1,621.76,189.2455c13.9293,18.96,26.5211,38.5252,31.6465,61.9447.568,2.5952,1.0644,5.2062,1.5939,7.81v7c-.6138,1.7335-1.2192,3.47-1.8425,5.2-2.8166,7.817-9.5686,10.608-16.693,12.3011C617.756,287.947,612.8762,303.7,617.048,320.256c3.1513,12.5059,4.7387,25.0116,3.6532,37.7187-.5236,6.13-2.94,12.0975-4.7376,19.06-1.9858-1.8587-2.98-2.69-3.8605-3.6282-14.1085-15.04-36.9985-7.4657-42.9942,10.9848-2.5134,7.7347-5.1176,15.4515-8.0264,23.0439-11.2017,29.2383-29.0632,54.2146-50.2013,76.9417a301.9686,301.9686,0,0,1-57.83,47.9087,360.4163,360.4163,0,0,1-76.64,37.8307c-22.4765,7.8551-45.1694,14.8817-68.8787,17.9136-14.3487,1.8349-28.7462,3.2859-43.1159,4.96A20.29,20.29,0,0,0,261,594h-7a8.6016,8.6016,0,0,0-2.6412-.9553q-14.8659-.1151-29.7326-.0235A8.3581,8.3581,0,0,0,219,594h-5c-.4667-.3414-.9017-.9232-1.4046-.99-18.0339-2.38-36.1786-4.1051-54.089-7.1914-27.0768-4.6658-52.7743-14.0632-77.5789-25.6838-22.0451-10.3278-42.6951-23.1591-61.0064-39.24A389.363,389.363,0,0,1-10.5866,490.266c-6.3238-6.9419-13.7149-10.37-22.613-9.0936-10.0238,1.4383-16.7053,7.7141-19.7394,17.5023-1.8683,6.0269-3.5419,12.1141-5.6484,19.3633-3.866-2.1258-7.5125-3.5469-10.4648-5.8556-12.8-10.01-20.5553-23.6428-26.4231-38.4348-4.1432-10.4444-7-21.5021-5.936-32.6217,1.281-13.3882-5.4345-22.5051-13.0227-26.9869-8.6237-5.0931-21.1992-4.7255-28.4309,1.9563-3.1337,2.8954-6.4752,5.566-11.1052,9.52-1.0809-9.4877-2.0389-17.8761-2.9909-26.2652-.3536-3.1158-.6931-6.2331-1.039-9.35v-1a8.4216,8.4216,0,0,0,.9942-2.3594c1.0546-12.14,1.6792-24.3285,3.121-36.4205,2.9408-24.6634,9.0859-48.641,16.61-72.2687,8.12-25.4974,17.8069-50.3493,30.7376-73.8572a15.4151,15.4151,0,0,0,1.6307-6.04c.7527-9.225,1.1619-18.4789,1.9651-27.6988,1.5675-17.9933,5.5409-35.4948,10.7818-52.7669,8.0984-26.69,19.34-51.8578,34.8708-74.0883-5.9969-6.8136-11.8975-13.1755-17.4178-19.8518C-93.8909.446-110.56-24.38-122.4194-52.1848c-8.2752-19.4011-14.0421-39.3151-13.6347-60.7914.4818-25.394,14.575-45.9089,38.2838-54.9559,22.309-8.5129,45.457-8.8393,68.63-6.6654a263.3378,263.3378,0,0,1,66.8412,14.9794c21.97,8.13,43.3029,17.9741,65.0039,26.85a14.71,14.71,0,0,0,8.1933.698c7.9494-1.7179,15.7688-4.031,23.6539-6.0539,32.9819-8.4613,66.57-12.2357,100.5517-12.8056,10.9-.1828,21.8052-.0287,32.9346-.0287a31.3116,31.3116,0,0,0,.9563-5.13c.8069-20.6241,4.8621-40.5817,13.2122-59.4519,6.4725-14.6273,15.2593-27.6906,30.2414-35.0231C316.6765-252.6326,321.4672-253.5528,326-255Zm6.0427,670.11c.2943.1814.84.5138,1.3817.8525,28.2718,17.6782,58.6552,26.2717,92.2432,22.2413a129.6609,129.6609,0,0,0,45.366-14.3c23.09-12.193,41.7041-29.5707,56.2865-51.3337a190.4576,190.4576,0,0,0,26.2242-57.6837c4.0748-15.4533-6.2906-28.6479-21.0661-30.056-12.9277-1.2321-22.4986,6.6087-26.4648,20.0895-8.028,27.2866-21.7984,50.7841-44.7483,68.2-19.5683,14.8492-41.7268,20.6863-65.9121,16.6365-20.7928-3.4817-38.5878-13.613-53.3357-28.5239-12.7919-12.9335-34.5673-10.8561-41.9743,9.3109-7.09,19.3041-20.0883,33.3511-38.4338,42.371-21.2936,10.4695-44.0311,10.8331-66.7824,7.7138-19.956-2.7361-38.8382-9.59-56.9983-18.403a269.7052,269.7052,0,0,1-62.86-42.8721c-5.04-4.5411-11.08-7.598-17.777-7.2363-10.8192.5844-18.951,5.8977-22.4864,16.6187-3.0753,9.3257-1.0315,17.8251,6.0574,24.537,6.5805,6.2305,13.5706,12.0672,20.6963,17.6759A300.0047,300.0047,0,0,0,137.13,454.6993a227.99,227.99,0,0,0,76.8674,16.1551,149.1471,149.1471,0,0,0,45.81-5.8536c20.6188-5.91,39.224-15.6177,54.6179-30.775C320.5357,428.21,326.0784,421.6177,332.0427,415.11ZM129.2978,189.8466c4.8664,10.81,9.3905,20.9309,13.9741,31.0245,5.53,12.1769,11.0321,24.3672,16.6907,36.4843a23.6274,23.6274,0,0,0,24.5687,13.48c17.31-2.6985,25.994-19.8414,18.1584-35.9672-7.2586-14.9381-13.82-30.2153-20.6555-45.3581-.7473-1.6556-1.277-3.41-1.4824-3.9659,5.3.1736,10.6354,1.1135,15.7227.3659,13.1265-1.929,21.623-16.6146,18.194-29.4183-2.2893-8.548-8.4969-13.5-14.8328-18.4695-22.5162-17.6589-47.48-27.9285-76.6009-22.9137-14.5305,2.5023-26.5846,10.0352-34.6286,22.84-9.4767,15.0859-10.5939,31.4684-6.3194,48.316,3.9009,15.3748,16.636,22.8557,31.4517,18.7833C121.1631,202.9526,125.7631,197.2605,129.2978,189.8466Zm293.6444-52.4815c2.3151.887,4.1226,1.6219,5.9587,2.276a23.1567,23.1567,0,0,0,25.0749-6.3748c7.4156-8.666,8.7372-19.0334,3.1712-27.7549-8.8939-13.936-22.0351-21.944-38.4126-23.465-18.75-1.7413-33.9532,10.9819-39.8214,27.4391-6.941,19.4658-4.7888,38.8021,1.0171,57.984,6.93,22.8978,17.908,43.4671,37.2875,58.2778,16.0987,12.3034,34.944,14.8685,50.9188,3.224,9.7662-7.1189,15.0684-17.331,17.2355-29.3665,1.4816-8.2271-2.0166-17.9624-8.5887-22.894-6.1422-4.6089-13.1294-6.45-20.0213-4.4559-5.7635,1.6675-10.786,5.8967-16.5915,9.2546A88.5176,88.5176,0,0,1,422.9422,137.3651ZM275.16,23.0451c3.3913,1.2533,6.4832,2.7772,9.7526,3.54,17.0508,3.9794,31.74-12,28.4047-27.7776-2.159-10.2121-9.1847-16.19-16.7174-21.7256-21.3519-15.692-50.8894-12.7155-63.8853,14.4-6.8678,14.3294-7.2561,29.4412-4.5411,44.4057,4.4546,24.5531,14.7383,46.3836,34.6765,62.4974,12.2411,9.893,26.1393,14.2643,41.621,9.4192,13.4242-4.2013,21.6786-14.1768,26.5256-26.989,3.9448-10.4277-.3182-23.249-9.5123-28.6881-9.6671-5.719-20.974-5.202-29.6632,3.15a22.6043,22.6043,0,0,1-2.7742,1.9554A67.5494,67.5494,0,0,1,275.16,23.0451Z" transform="translate(158 255)"/>
    <path class="b" d="M219,594a8.3581,8.3581,0,0,1,2.6262-.9788q14.8659-.093,29.7326.0235A8.6016,8.6016,0,0,1,254,594Z" transform="translate(158 255)"/>
  </g>
</svg>
