<svg id="Layer_1" data-name="Layer 1" xmlns="http://www.w3.org/2000/svg" viewBox="0 0 486.0362 170.3716"><path d="M504.4556,579.0117c-14.0367,0-32.4287-9.6806-38.479-23.2324-2.6621,1.9355-2.42,3.3877-4.84,5.5654-3.146,2.9043-6.2925.7266-5.5664-3.872.2422-2.1778,3.146-5.8077,4.84-8.47,8.2281-14.2783,15.2461-49.853,14.7623-62.9214-3.8721-4.5981-7.9864-10.164-7.26-16.456,1.21-10.6484,4.84-16.4566,21.2964-18.15,2.9043-.2422,7.26-.4844,7.9863,4.84.4839,3.63-6.7764,4.5982-6.05,8.9541,3.146,16.6983,46.9492,48.4009,48.8848,77.6841C541.24,564.4912,524.3,579.0117,504.4556,579.0117Zm-17.4244-83.25c-1.6943,12.8262-9.4384,39.4473-10.6484,44.7715,5.5659-3.8721,10.6484-4.8408,13.7944-4.8408,4.1138,0,7.9859,1.9365,8.2281,4.3564,0,1.4522-.9683,2.9043-3.8721,4.5977-3.8721,2.1787-14.0361,4.1142-13.7944,8.7129.4843,7.5019,9.68,11.374,15.4883,11.374,4.84,0,21.0546-1.4522,19.8447-15.7305C514.62,530.8525,501.3091,506.6519,487.0312,495.7617Z" transform="translate(-455.4648 -412.7544)" style="fill:#ebebeb"/><path d="M609.24,580.7051c-10.89,0-13.0683-9.9219-14.52-13.5518-5.8081,7.0186-14.2783,14.5205-24.2,14.5205-18.6342,0-27.8305-28.7988-27.8305-47.6748,0-24.2011,14.52-62.438,37.9946-62.438,12.8262,0,14.0361,6.5342,18.8765,10.1646,2.6621-6.05,2.42-9.68,8.9541-9.68,4.1137,0,11.8579,2.6621,11.8579,7.502,0,4.1142-2.6616,10.4062-3.8721,14.2783-4.5976,18.15-6.5337,40.6567-6.5337,58.8071,0,2.9043,3.63,7.0186,6.292,7.0186,7.26,0,17.6665-29.7666,19.8443-40.4151a4.8922,4.8922,0,0,1,4.3559-3.3877c1.936,0,3.8721,1.9356,3.8721,6.5342C644.33,538.5967,631.2622,580.7051,609.24,580.7051ZM582.377,481.9673c-8.2281,0-16.4561,31.2192-16.94,48.4009-.2422,15.0048,3.146,37.0273,10.89,37.0273,7.26,0,16.4561-13.5527,16.6983-18.6348.4839-9.4375,1.6938-23.4746,1.6938-32.9121C594.7192,507.8618,593.2671,481.9673,582.377,481.9673Z" transform="translate(-455.4648 -412.7544)" style="fill:#ebebeb"/><path d="M663.2021,465.7534c-.9682,7.9859-8.7124,54.6929-8.7124,77.9253,0,14.52,7.7442,19.6025,11.6163,19.6025,12.1005,0,17.1826-30.4921,21.2963-41.625.9683-2.1777,2.4205-3.3876,4.1143-3.3876,1.936,0,4.1138,1.21,4.1138,6.5341,0,16.9405-16.6983,58.3233-37.0264,58.3233-11.374,0-25.1685-12.8262-25.1685-28.7989,0-8.9541,1.6939-23.2324,2.6622-31.9443,1.936-17.1831,5.082-30.977,6.7758-55.1777a144.7584,144.7584,0,0,1-21.0542,1.936c-2.1782,0-2.6621-2.42-2.6621-6.292,0-3.146.9683-12.1,5.8081-12.1,6.5342,0,12.584,1.9361,19.1182,1.4517-.2417-9.68,1.4521-18.15,1.4521-27.83,0-9.4385,10.4063-11.6162,16.94-11.6162,3.3882,0,4.84,2.42,4.84,5.8081v.2417c0,12.8262-2.9038,20.3286-3.146,32.6709a239.6856,239.6856,0,0,0,30.7349,0c6.7759-.7261,10.6479,6.7759,4.3559,8.47C685.4663,463.8169,675.06,463.0913,663.2021,465.7534Z" transform="translate(-455.4648 -412.7544)" style="fill:#ebebeb"/><path d="M838.8955,583.126c-16.2139,0-22.5068-17.1826-22.5068-30.9766,0-19.1191,5.3242-37.7529,5.3242-56.8716,0-3.63-1.4522-5.5664-5.3242-5.5664-4.84,0-7.502,15.73-14.0362,30.9771-6.05,14.0361-13.3095,26.62-29.2822,28.7988-5.082.7256-8.47.4834-12.1-1.6943-8.9541,16.94-18.6348,26.8623-39.6895,26.8623-27.5878,0-43.3183-32.9121-43.3183-57.1133,0-31.4605,26.1367-57.5972,58.081-57.5972,10.1641,0,27.5889,9.1963,27.5889,21.2969,0,.9678-2.1787,2.1777-2.9043,2.1777-7.0185,0-7.0185-11.1323-23.4746-11.1323-24.2,0-28.0723,18.8765-30.25,38.9629-1.4516,13.7949,4.3565,43.3193,22.9907,43.3193,10.6475,0,16.6983-3.63,21.78-13.0683-7.7441-5.0821-18.3926-18.15-18.3926-28.3145,0-13.3105,7.9864-22.9907,21.78-22.9907,10.6484,0,17.666,8.47,17.666,18.6343,0,6.5342-1.9355,20.3281-5.5654,25.6523,1.9355,1.6944,3.63,1.6944,6.05,1.6944,5.082,0,10.8906-4.84,15.7305-12.1006,7.26-10.89,12.1-26.6206,12.1-33.3965,0-8.228-8.47-8.47-8.47-16.94,0-3.8721,2.42-6.292,6.2919-6.292,6.292,0,14.5206,7.018,24.9268,7.018,7.0176,0,13.0684-4.1142,19.8438-4.1142,5.8085,0,11.8584,8.2285,11.8584,13.5522,0,4.84-3.1456,8.9546-5.0821,13.3106-4.5976,10.6479-9.9219,37.5107-9.9219,49.3691,0,4.84,0,26.3779,7.502,26.3779,10.4062,0,15.7305-22.5058,15.7305-30.4921,0-6.05-7.503-9.68-7.503-15.7305,0-3.3877,9.4385-4.1143,11.6172-4.1143,8.47,0,7.9854,9.4385,7.9854,16.2149C875.9219,559.4092,861.4023,583.126,838.8955,583.126Zm-82.2812-82.2822c-4.5977,0-8.712,7.018-8.712,11.1323,0,5.3247,5.8077,14.7622,10.4063,17.4243,1.6934-3.63,4.3555-12.8262,4.3555-16.94C762.6641,508.83,761.2119,500.8438,756.6143,500.8438Z" transform="translate(-455.4648 -412.7544)" style="fill:#ebebeb"/><path d="M903.99,580.7051c-11.374,0-20.0859-11.374-20.0859-28.0723,0-22.99,2.42-42.5928,2.42-68.0034v-7.26c0-4.5981,1.9356-7.26,6.292-7.26a122.6434,122.6434,0,0,1,13.5527,1.21c2.9034.2417,3.8711,2.9038,3.63,5.3243-1.6943,21.538-3.63,49.6113-3.63,69.9394,0,11.1318,2.42,15.9727,5.8077,15.9727,10.6484,0,17.4248-30.9766,20.8125-43.3194.4834-2.1777,3.1455-3.1455,5.082-3.1455,2.1777,0,3.63,1.9356,3.63,7.26C941.501,540.291,927.9492,580.7051,903.99,580.7051Zm-2.1777-139.8784c-6.7764,0-12.8262-4.84-13.0684-13.0684v-.4839c-.2421-6.05,5.0821-12.3423,13.794-12.3423,8.2285,0,12.8262,5.0821,12.8262,12.5845C915.3643,436.7124,908.3467,440.8267,901.8125,440.8267Z" transform="translate(-455.4648 -412.7544)" style="fill:#ebebeb"/></svg>