<svg id="Layer_1" data-name="Layer 1" xmlns="http://www.w3.org/2000/svg" viewBox="0 0 539.8975 126.0166"><path d="M480.7681,567.0527c-10.3819,0-23.9859-7.16-28.461-17.1845-1.9692,1.4326-1.79,2.5058-3.58,4.1172-2.3272,2.1484-4.6539.5371-4.1172-2.8643.1792-1.61,2.3271-4.2959,3.58-6.2647,6.086-10.5615,11.2774-36.874,10.9195-46.54-2.8643-3.4009-5.9073-7.5181-5.37-12.1719.895-7.8764,3.58-12.1723,15.7519-13.4253,2.148-.1787,5.37-.3579,5.9072,3.58.3579,2.6851-5.0122,3.4009-4.4751,6.6231,2.3267,12.351,34.7261,35.8,36.1582,57.4594C507.9766,556.3125,495.4463,567.0527,480.7681,567.0527ZM467.88,505.4766c-1.2534,9.4863-6.9815,29.1767-7.8765,33.1152a18.2758,18.2758,0,0,1,10.2031-3.58c3.043,0,5.9073,1.4317,6.086,3.2217,0,1.0742-.7159,2.1484-2.8638,3.4014-2.8638,1.61-10.3818,3.0429-10.2031,6.4433.3579,5.5489,7.16,8.4131,11.456,8.4131,3.58,0,15.5733-1.0742,14.6783-11.6348C488.2861,531.4316,478.4414,513.5312,467.88,505.4766Z" transform="translate(-264.1406 -444.0791)" style="fill:#ebebeb"/><path d="M558.2734,568.3057c-8.0551,0-9.666-7.3389-10.74-10.0245-4.2959,5.1915-10.561,10.74-17.9,10.74-13.7832,0-20.585-21.3008-20.585-35.2627,0-17.9,10.74-46.1826,28.1031-46.1826,9.4868,0,10.3818,4.833,13.9619,7.518,1.9692-4.4751,1.79-7.16,6.623-7.16,3.043,0,8.771,1.9687,8.771,5.5488,0,3.043-1.9687,7.6968-2.8637,10.561-3.4009,13.4253-4.8331,30.0718-4.8331,43.4966,0,2.1485,2.6851,5.1914,4.6539,5.1914,5.37,0,13.0673-22.0176,14.6782-29.8935a3.6183,3.6183,0,0,1,3.2221-2.5059c1.4317,0,2.8638,1.4326,2.8638,4.833C584.2285,537.1592,574.5625,568.3057,558.2734,568.3057Zm-19.8691-73.0323c-6.0859,0-12.1719,23.0909-12.53,35.8-.1792,11.0977,2.3267,27.3868,8.0547,27.3868,5.37,0,12.1724-10.0235,12.3511-13.7823.3579-6.9814,1.2529-17.3632,1.2529-24.3447C547.5332,514.4258,546.46,495.2734,538.4043,495.2734Z" transform="translate(-264.1406 -444.0791)" style="fill:#ebebeb"/><path d="M598.1885,483.28c-.7163,5.9072-6.4444,40.4541-6.4444,57.6377,0,10.74,5.7281,14.499,8.5923,14.499,8.95,0,12.709-22.5537,15.752-30.7881.7158-1.61,1.79-2.5059,3.0429-2.5059,1.4322,0,3.043.8956,3.043,4.8331,0,12.53-12.3511,43.14-27.3872,43.14-8.4131,0-18.6157-9.4873-18.6157-21.3018,0-6.623,1.2529-17.1835,1.9687-23.6279,1.4322-12.7085,3.7593-22.9116,5.0122-40.8115a107.0952,107.0952,0,0,1-15.5732,1.4316c-1.6108,0-1.9687-1.7895-1.9687-4.6538,0-2.3271.7158-8.95,4.2958-8.95,4.8331,0,9.3082,1.4322,14.1412,1.0742-.1792-7.16,1.0737-13.4252,1.0737-20.5849,0-6.9815,7.6973-8.5923,12.53-8.5923,2.5058,0,3.58,1.79,3.58,4.2959v.1792c0,9.4868-2.1479,15.0361-2.3271,24.165a177.1817,177.1817,0,0,0,22.7329,0c5.0122-.5371,7.876,5.0122,3.2222,6.2652C614.6562,481.8481,606.96,481.3115,598.1885,483.28Z" transform="translate(-264.1406 -444.0791)" style="fill:#ebebeb"/><path d="M728.1426,570.0957c-11.9932,0-16.647-12.709-16.647-22.9121,0-14.1416,3.938-27.9248,3.938-42.0649,0-2.6851-1.0742-4.1172-3.938-4.1172-3.58,0-5.5488,11.6347-10.3818,22.9116-4.4751,10.3818-9.8452,19.69-21.6592,21.3017-3.7593.5362-6.2651.3575-8.95-1.2539-6.6231,12.53-13.7832,19.8692-29.356,19.8692-20.4062,0-32.0415-24.3438-32.0415-42.2442,0-23.27,19.3326-42.6015,42.9605-42.6015,7.518,0,20.4062,6.8017,20.4062,15.7519,0,.7163-1.6113,1.6109-2.1484,1.6109-5.1909,0-5.1909-8.2339-17.3628-8.2339-17.9,0-20.7642,13.9619-22.375,28.8193-1.0742,10.2031,3.2217,32.041,17.0049,32.041,7.876,0,12.3511-2.6855,16.11-9.666-5.7275-3.76-13.604-13.4258-13.604-20.9433,0-9.8448,5.9073-17.0049,16.11-17.0049,7.876,0,13.0669,6.2651,13.0669,13.7832,0,4.833-1.4321,15.0361-4.1172,18.9736,1.4321,1.2529,2.6851,1.2529,4.4751,1.2529,3.7593,0,8.0552-3.58,11.6353-8.95,5.37-8.0546,8.95-19.6894,8.95-24.7016,0-6.086-6.2652-6.2647-6.2652-12.53a4.3246,4.3246,0,0,1,4.6538-4.6543c4.6543,0,10.74,5.1909,18.4365,5.1909,5.1915,0,9.667-3.0429,14.6788-3.0429,4.2959,0,8.77,6.0864,8.77,10.0244,0,3.58-2.3262,6.623-3.7588,9.8447-3.4014,7.8755-7.3389,27.7446-7.3389,36.5161,0,3.58,0,19.5107,5.5488,19.5107,7.6973,0,11.6348-16.6464,11.6348-22.5537,0-4.4755-5.5488-7.16-5.5488-11.6347,0-2.5069,6.9814-3.043,8.5927-3.043,6.2647,0,5.9063,6.9805,5.9063,11.9922C755.5293,552.5537,744.7891,570.0957,728.1426,570.0957Zm-60.86-60.86c-3.4009,0-6.4438,5.19-6.4438,8.2343,0,3.9375,4.2959,10.919,7.6972,12.8877,1.253-2.6855,3.2217-9.4873,3.2217-12.53C671.7573,515.1426,670.6836,509.2354,667.2822,509.2354Z" transform="translate(-264.1406 -444.0791)" style="fill:#ebebeb"/><path d="M776.292,568.3057c-8.4121,0-14.8565-8.4131-14.8565-20.7647,0-17.0049,1.79-31.5039,1.79-50.2988v-5.37c0-3.4014,1.4316-5.37,4.6543-5.37a90.7109,90.7109,0,0,1,10.0234.8951c2.1485.1787,2.8643,2.1479,2.6856,3.9379-1.253,15.9312-2.6856,36.6949-2.6856,51.731,0,8.2344,1.79,11.8145,4.2969,11.8145,7.876,0,12.8877-22.9121,15.3936-32.042.3583-1.61,2.3271-2.3262,3.7587-2.3262,1.6114,0,2.6856,1.4316,2.6856,5.3691C804.0381,538.4121,794.0137,568.3057,776.292,568.3057Zm-1.61-103.4624a9.5013,9.5013,0,0,1-9.666-9.6661v-.3579c-.18-4.4751,3.7588-9.1294,10.2032-9.1294,6.0859,0,9.4873,3.7593,9.4873,9.3081C784.7061,461.8,779.5146,464.8433,774.6816,464.8433Z" transform="translate(-264.1406 -444.0791)" style="fill:#ebebeb"/><path d="M264.1406,534.0254h2.0161l11.0039,21.2519,10.584-21.2519h1.9742v30.1982h-1.26V535.7891L277.5386,557h-.84l-11.2978-21.2109v28.4345h-1.26Z" transform="translate(-264.1406 -444.0791)" style="fill:#ebebeb"/><path d="M304.5864,534.0254h1.5962l11.4658,30.1982h-1.3857l-3.9063-10.29h-14.07l-3.9482,10.29h-1.3858Zm7.2661,18.6484-6.4677-17.0107-6.5943,17.0107Z" transform="translate(-264.1406 -444.0791)" style="fill:#ebebeb"/><path d="M320.7139,534.0254h6.93q6.6783,0,9.7022,1.47,6.6776,3.36,6.6777,13.65,0,10.4576-6.6777,13.6084-3.1926,1.4708-9.7022,1.47h-6.93Zm7.2661,28.9385q6.0894,0,8.9883-1.5127,5.5847-2.9385,5.5859-12.3057,0-7.6011-3.99-11.2139a10.2142,10.2142,0,0,0-4.9981-2.2685,22.0289,22.0289,0,0,0-2.352-.252q-1.3859-.0834-3.2339-.084h-5.8379v27.6368Z" transform="translate(-264.1406 -444.0791)" style="fill:#ebebeb"/><path d="M349.6519,534.0254H368.09v1.3437H351.08v12.4747H364.562v1.3017H351.08V562.88h17.43v1.3437H349.6519Z" transform="translate(-264.1406 -444.0791)" style="fill:#ebebeb"/><path d="M384.3853,534.0254h8.2739q5.6278,0,7.812,1.3017a6.5969,6.5969,0,0,1,3.2344,6.1739q0,5.0829-5.166,6.8886,6.7191,1.3023,6.72,7.77a7.225,7.225,0,0,1-3.4439,6.5947q-2.436,1.4708-8.2319,1.47h-9.1982Zm8.4423,13.9443q9.45,0,9.45-6.5527,0-3.82-3.0659-5.208a16.62,16.62,0,0,0-6.4682-.9238h-6.93V547.97Zm.462,14.9942q4.9548,0,6.8037-.7559,3.6957-1.5132,3.6963-6.3008a5.77,5.77,0,0,0-3.4024-5.7119,17.0957,17.0957,0,0,0-7.0557-1.1338h-7.518v13.9024Z" transform="translate(-264.1406 -444.0791)" style="fill:#ebebeb"/><path d="M415.8018,550.8672l-10.3741-16.8418h1.5962l9.5337,15.4141,9.4082-15.4141h1.5957l-10.374,16.9258v13.2724h-1.3857Z" transform="translate(-264.1406 -444.0791)" style="fill:#ebebeb"/></svg>